<svg xmlns="http://www.w3.org/2000/svg" xmlns:xlink="http://www.w3.org/1999/xlink" width="500" zoomAndPan="magnify" viewBox="0 0 375 374.999991" height="500" preserveAspectRatio="xMidYMid meet" version="1.0"><defs><filter x="0%" y="0%" width="100%" height="100%" id="d5abe1e3d9"><feColorMatrix values="0 0 0 0 1 0 0 0 0 1 0 0 0 0 1 0 0 0 1 0" color-interpolation-filters="sRGB"/></filter><g/><clipPath id="9620938e25"><path d="M 0 0 L 375 0 L 375 375 L 0 375 Z M 0 0 " clip-rule="nonzero"/></clipPath><linearGradient x1="-17.880089" gradientTransform="matrix(0.740961, 0, 0, 0.741224, 13.248461, 144.879571)" y1="57" x2="488.219111" gradientUnits="userSpaceOnUse" y2="57" id="33a6f63415"><stop stop-opacity="1" stop-color="rgb(0%, 0%, 0%)" offset="0"/><stop stop-opacity="1" stop-color="rgb(0%, 0%, 0%)" offset="0.03125"/><stop stop-opacity="1" stop-color="rgb(0.0442505%, 0.0427246%, 0.175476%)" offset="0.0390625"/><stop stop-opacity="1" stop-color="rgb(0.184631%, 0.178528%, 0.718689%)" offset="0.0429687"/><stop stop-opacity="1" stop-color="rgb(0.280762%, 0.270081%, 1.087952%)" offset="0.046875"/><stop stop-opacity="1" stop-color="rgb(0.375366%, 0.361633%, 1.455688%)" offset="0.0507812"/><stop stop-opacity="1" stop-color="rgb(0.471497%, 0.453186%, 1.824951%)" offset="0.0546875"/><stop stop-opacity="1" stop-color="rgb(0.566101%, 0.544739%, 2.192688%)" offset="0.0585937"/><stop stop-opacity="1" stop-color="rgb(0.662231%, 0.636292%, 2.561951%)" offset="0.0625"/><stop stop-opacity="1" stop-color="rgb(0.756836%, 0.727844%, 2.929688%)" offset="0.0664062"/><stop stop-opacity="1" stop-color="rgb(0.85144%, 0.819397%, 3.29895%)" offset="0.0703125"/><stop stop-opacity="1" stop-color="rgb(0.946045%, 0.91095%, 3.666687%)" offset="0.0742187"/><stop stop-opacity="1" stop-color="rgb(1.042175%, 1.004028%, 4.03595%)" offset="0.078125"/><stop stop-opacity="1" stop-color="rgb(1.13678%, 1.095581%, 4.403687%)" offset="0.0820312"/><stop stop-opacity="1" stop-color="rgb(1.23291%, 1.187134%, 4.772949%)" offset="0.0859375"/><stop stop-opacity="1" stop-color="rgb(1.327515%, 1.278687%, 5.140686%)" offset="0.0898437"/><stop stop-opacity="1" stop-color="rgb(1.423645%, 1.370239%, 5.509949%)" offset="0.09375"/><stop stop-opacity="1" stop-color="rgb(1.51825%, 1.461792%, 5.877686%)" offset="0.0976562"/><stop stop-opacity="1" stop-color="rgb(1.61438%, 1.553345%, 6.246948%)" offset="0.101562"/><stop stop-opacity="1" stop-color="rgb(1.708984%, 1.644897%, 6.614685%)" offset="0.105469"/><stop stop-opacity="1" stop-color="rgb(1.805115%, 1.73645%, 6.982422%)" offset="0.109375"/><stop stop-opacity="1" stop-color="rgb(1.899719%, 1.828003%, 7.350159%)" offset="0.113281"/><stop stop-opacity="1" stop-color="rgb(1.994324%, 1.919556%, 7.719421%)" offset="0.117187"/><stop stop-opacity="1" stop-color="rgb(2.088928%, 2.011108%, 8.087158%)" offset="0.121094"/><stop stop-opacity="1" stop-color="rgb(2.185059%, 2.102661%, 8.456421%)" offset="0.125"/><stop stop-opacity="1" stop-color="rgb(2.279663%, 2.194214%, 8.824158%)" offset="0.128906"/><stop stop-opacity="1" stop-color="rgb(2.375793%, 2.287292%, 9.19342%)" offset="0.132812"/><stop stop-opacity="1" stop-color="rgb(2.470398%, 2.378845%, 9.561157%)" offset="0.136719"/><stop stop-opacity="1" stop-color="rgb(2.566528%, 2.470398%, 9.93042%)" offset="0.140625"/><stop stop-opacity="1" stop-color="rgb(2.661133%, 2.561951%, 10.298157%)" offset="0.144531"/><stop stop-opacity="1" stop-color="rgb(2.757263%, 2.653503%, 10.667419%)" offset="0.148438"/><stop stop-opacity="1" stop-color="rgb(2.851868%, 2.745056%, 11.035156%)" offset="0.152344"/><stop stop-opacity="1" stop-color="rgb(2.947998%, 2.836609%, 11.404419%)" offset="0.15625"/><stop stop-opacity="1" stop-color="rgb(3.042603%, 2.928162%, 11.772156%)" offset="0.160156"/><stop stop-opacity="1" stop-color="rgb(3.137207%, 3.019714%, 12.141418%)" offset="0.164062"/><stop stop-opacity="1" stop-color="rgb(3.231812%, 3.111267%, 12.509155%)" offset="0.167969"/><stop stop-opacity="1" stop-color="rgb(3.327942%, 3.20282%, 12.878418%)" offset="0.171875"/><stop stop-opacity="1" stop-color="rgb(3.422546%, 3.294373%, 13.246155%)" offset="0.175781"/><stop stop-opacity="1" stop-color="rgb(3.518677%, 3.385925%, 13.615417%)" offset="0.179688"/><stop stop-opacity="1" stop-color="rgb(3.613281%, 3.477478%, 13.983154%)" offset="0.183594"/><stop stop-opacity="1" stop-color="rgb(3.709412%, 3.570557%, 14.352417%)" offset="0.1875"/><stop stop-opacity="1" stop-color="rgb(3.804016%, 3.662109%, 14.720154%)" offset="0.191406"/><stop stop-opacity="1" stop-color="rgb(3.900146%, 3.753662%, 15.089417%)" offset="0.195312"/><stop stop-opacity="1" stop-color="rgb(3.994751%, 3.845215%, 15.457153%)" offset="0.199219"/><stop stop-opacity="1" stop-color="rgb(4.090881%, 3.936768%, 15.82489%)" offset="0.203125"/><stop stop-opacity="1" stop-color="rgb(4.185486%, 4.02832%, 16.192627%)" offset="0.207031"/><stop stop-opacity="1" stop-color="rgb(4.28009%, 4.119873%, 16.56189%)" offset="0.210937"/><stop stop-opacity="1" stop-color="rgb(4.374695%, 4.211426%, 16.929626%)" offset="0.214844"/><stop stop-opacity="1" stop-color="rgb(4.470825%, 4.302979%, 17.298889%)" offset="0.21875"/><stop stop-opacity="1" stop-color="rgb(4.56543%, 4.394531%, 17.666626%)" offset="0.222656"/><stop stop-opacity="1" stop-color="rgb(4.66156%, 4.486084%, 18.035889%)" offset="0.226562"/><stop stop-opacity="1" stop-color="rgb(4.756165%, 4.577637%, 18.403625%)" offset="0.230469"/><stop stop-opacity="1" stop-color="rgb(4.852295%, 4.669189%, 18.772888%)" offset="0.234375"/><stop stop-opacity="1" stop-color="rgb(4.946899%, 4.760742%, 19.140625%)" offset="0.238281"/><stop stop-opacity="1" stop-color="rgb(5.04303%, 4.853821%, 19.509888%)" offset="0.242188"/><stop stop-opacity="1" stop-color="rgb(5.137634%, 4.945374%, 19.877625%)" offset="0.246094"/><stop stop-opacity="1" stop-color="rgb(5.233765%, 5.036926%, 20.246887%)" offset="0.25"/><stop stop-opacity="1" stop-color="rgb(5.328369%, 5.128479%, 20.614624%)" offset="0.253906"/><stop stop-opacity="1" stop-color="rgb(5.422974%, 5.220032%, 20.983887%)" offset="0.257812"/><stop stop-opacity="1" stop-color="rgb(5.517578%, 5.311584%, 21.351624%)" offset="0.261719"/><stop stop-opacity="1" stop-color="rgb(5.613708%, 5.403137%, 21.720886%)" offset="0.265625"/><stop stop-opacity="1" stop-color="rgb(5.708313%, 5.49469%, 22.088623%)" offset="0.269531"/><stop stop-opacity="1" stop-color="rgb(5.804443%, 5.586243%, 22.457886%)" offset="0.273437"/><stop stop-opacity="1" stop-color="rgb(5.899048%, 5.677795%, 22.825623%)" offset="0.277344"/><stop stop-opacity="1" stop-color="rgb(5.995178%, 5.769348%, 23.194885%)" offset="0.28125"/><stop stop-opacity="1" stop-color="rgb(6.089783%, 5.860901%, 23.562622%)" offset="0.285156"/><stop stop-opacity="1" stop-color="rgb(6.185913%, 5.952454%, 23.930359%)" offset="0.289062"/><stop stop-opacity="1" stop-color="rgb(6.280518%, 6.044006%, 24.298096%)" offset="0.292969"/><stop stop-opacity="1" stop-color="rgb(6.375122%, 6.137085%, 24.667358%)" offset="0.296875"/><stop stop-opacity="1" stop-color="rgb(6.469727%, 6.228638%, 25.035095%)" offset="0.300781"/><stop stop-opacity="1" stop-color="rgb(6.565857%, 6.32019%, 25.404358%)" offset="0.304687"/><stop stop-opacity="1" stop-color="rgb(6.660461%, 6.411743%, 25.772095%)" offset="0.308594"/><stop stop-opacity="1" stop-color="rgb(6.756592%, 6.503296%, 26.141357%)" offset="0.3125"/><stop stop-opacity="1" stop-color="rgb(6.851196%, 6.594849%, 26.509094%)" offset="0.316406"/><stop stop-opacity="1" stop-color="rgb(6.947327%, 6.686401%, 26.878357%)" offset="0.320312"/><stop stop-opacity="1" stop-color="rgb(7.041931%, 6.777954%, 27.246094%)" offset="0.324219"/><stop stop-opacity="1" stop-color="rgb(7.138062%, 6.869507%, 27.615356%)" offset="0.328125"/><stop stop-opacity="1" stop-color="rgb(7.232666%, 6.96106%, 27.983093%)" offset="0.332031"/><stop stop-opacity="1" stop-color="rgb(7.328796%, 7.052612%, 28.352356%)" offset="0.335938"/><stop stop-opacity="1" stop-color="rgb(7.423401%, 7.144165%, 28.720093%)" offset="0.339844"/><stop stop-opacity="1" stop-color="rgb(7.518005%, 7.235718%, 29.089355%)" offset="0.34375"/><stop stop-opacity="1" stop-color="rgb(7.61261%, 7.327271%, 29.457092%)" offset="0.347656"/><stop stop-opacity="1" stop-color="rgb(7.70874%, 7.420349%, 29.826355%)" offset="0.351562"/><stop stop-opacity="1" stop-color="rgb(7.803345%, 7.511902%, 30.194092%)" offset="0.355469"/><stop stop-opacity="1" stop-color="rgb(7.899475%, 7.603455%, 30.563354%)" offset="0.359375"/><stop stop-opacity="1" stop-color="rgb(7.99408%, 7.695007%, 30.931091%)" offset="0.363281"/><stop stop-opacity="1" stop-color="rgb(8.09021%, 7.78656%, 31.300354%)" offset="0.367187"/><stop stop-opacity="1" stop-color="rgb(8.184814%, 7.878113%, 31.668091%)" offset="0.371094"/><stop stop-opacity="1" stop-color="rgb(8.280945%, 7.969666%, 32.037354%)" offset="0.375"/><stop stop-opacity="1" stop-color="rgb(8.375549%, 8.061218%, 32.40509%)" offset="0.378906"/><stop stop-opacity="1" stop-color="rgb(8.47168%, 8.152771%, 32.772827%)" offset="0.382812"/><stop stop-opacity="1" stop-color="rgb(8.566284%, 8.244324%, 33.140564%)" offset="0.386719"/><stop stop-opacity="1" stop-color="rgb(8.660889%, 8.335876%, 33.509827%)" offset="0.390625"/><stop stop-opacity="1" stop-color="rgb(8.755493%, 8.427429%, 33.877563%)" offset="0.394531"/><stop stop-opacity="1" stop-color="rgb(8.851624%, 8.518982%, 34.246826%)" offset="0.398438"/><stop stop-opacity="1" stop-color="rgb(8.946228%, 8.610535%, 34.614563%)" offset="0.402344"/><stop stop-opacity="1" stop-color="rgb(9.042358%, 8.703613%, 34.983826%)" offset="0.40625"/><stop stop-opacity="1" stop-color="rgb(9.136963%, 8.795166%, 35.351562%)" offset="0.410156"/><stop stop-opacity="1" stop-color="rgb(9.233093%, 8.886719%, 35.720825%)" offset="0.414062"/><stop stop-opacity="1" stop-color="rgb(9.327698%, 8.978271%, 36.088562%)" offset="0.417969"/><stop stop-opacity="1" stop-color="rgb(9.423828%, 9.069824%, 36.457825%)" offset="0.421875"/><stop stop-opacity="1" stop-color="rgb(9.518433%, 9.161377%, 36.825562%)" offset="0.425781"/><stop stop-opacity="1" stop-color="rgb(9.614563%, 9.25293%, 37.194824%)" offset="0.429687"/><stop stop-opacity="1" stop-color="rgb(9.709167%, 9.344482%, 37.562561%)" offset="0.433594"/><stop stop-opacity="1" stop-color="rgb(9.803772%, 9.436035%, 37.931824%)" offset="0.4375"/><stop stop-opacity="1" stop-color="rgb(9.898376%, 9.527588%, 38.299561%)" offset="0.441406"/><stop stop-opacity="1" stop-color="rgb(9.994507%, 9.619141%, 38.668823%)" offset="0.445312"/><stop stop-opacity="1" stop-color="rgb(10.089111%, 9.710693%, 39.03656%)" offset="0.449219"/><stop stop-opacity="1" stop-color="rgb(10.185242%, 9.802246%, 39.405823%)" offset="0.453125"/><stop stop-opacity="1" stop-color="rgb(10.279846%, 9.893799%, 39.77356%)" offset="0.457031"/><stop stop-opacity="1" stop-color="rgb(10.375977%, 9.986877%, 40.142822%)" offset="0.460937"/><stop stop-opacity="1" stop-color="rgb(10.470581%, 10.07843%, 40.510559%)" offset="0.464844"/><stop stop-opacity="1" stop-color="rgb(10.566711%, 10.169983%, 40.878296%)" offset="0.46875"/><stop stop-opacity="1" stop-color="rgb(10.661316%, 10.261536%, 41.246033%)" offset="0.472656"/><stop stop-opacity="1" stop-color="rgb(10.757446%, 10.353088%, 41.615295%)" offset="0.476562"/><stop stop-opacity="1" stop-color="rgb(10.852051%, 10.444641%, 41.983032%)" offset="0.480469"/><stop stop-opacity="1" stop-color="rgb(10.946655%, 10.536194%, 42.352295%)" offset="0.484375"/><stop stop-opacity="1" stop-color="rgb(11.04126%, 10.627747%, 42.720032%)" offset="0.488281"/><stop stop-opacity="1" stop-color="rgb(11.13739%, 10.719299%, 43.089294%)" offset="0.492187"/><stop stop-opacity="1" stop-color="rgb(11.231995%, 10.810852%, 43.457031%)" offset="0.496094"/><stop stop-opacity="1" stop-color="rgb(11.328125%, 10.902405%, 43.826294%)" offset="0.5"/><stop stop-opacity="1" stop-color="rgb(11.422729%, 10.993958%, 44.194031%)" offset="0.503906"/><stop stop-opacity="1" stop-color="rgb(11.51886%, 11.08551%, 44.563293%)" offset="0.507812"/><stop stop-opacity="1" stop-color="rgb(11.613464%, 11.177063%, 44.93103%)" offset="0.511719"/><stop stop-opacity="1" stop-color="rgb(11.709595%, 11.270142%, 45.300293%)" offset="0.515625"/><stop stop-opacity="1" stop-color="rgb(11.804199%, 11.361694%, 45.66803%)" offset="0.519531"/><stop stop-opacity="1" stop-color="rgb(11.898804%, 11.453247%, 46.037292%)" offset="0.523437"/><stop stop-opacity="1" stop-color="rgb(11.993408%, 11.5448%, 46.405029%)" offset="0.527344"/><stop stop-opacity="1" stop-color="rgb(12.089539%, 11.636353%, 46.774292%)" offset="0.53125"/><stop stop-opacity="1" stop-color="rgb(12.184143%, 11.727905%, 47.142029%)" offset="0.535156"/><stop stop-opacity="1" stop-color="rgb(12.280273%, 11.819458%, 47.511292%)" offset="0.539062"/><stop stop-opacity="1" stop-color="rgb(12.374878%, 11.911011%, 47.879028%)" offset="0.542969"/><stop stop-opacity="1" stop-color="rgb(12.471008%, 12.002563%, 48.248291%)" offset="0.546875"/><stop stop-opacity="1" stop-color="rgb(12.565613%, 12.094116%, 48.616028%)" offset="0.550781"/><stop stop-opacity="1" stop-color="rgb(12.661743%, 12.185669%, 48.985291%)" offset="0.554687"/><stop stop-opacity="1" stop-color="rgb(12.756348%, 12.277222%, 49.353027%)" offset="0.558594"/><stop stop-opacity="1" stop-color="rgb(12.852478%, 12.368774%, 49.720764%)" offset="0.5625"/><stop stop-opacity="1" stop-color="rgb(12.947083%, 12.460327%, 50.088501%)" offset="0.566406"/><stop stop-opacity="1" stop-color="rgb(13.041687%, 12.553406%, 50.457764%)" offset="0.570312"/><stop stop-opacity="1" stop-color="rgb(13.136292%, 12.644958%, 50.8255%)" offset="0.574219"/><stop stop-opacity="1" stop-color="rgb(13.232422%, 12.736511%, 51.194763%)" offset="0.578125"/><stop stop-opacity="1" stop-color="rgb(13.327026%, 12.828064%, 51.5625%)" offset="0.582031"/><stop stop-opacity="1" stop-color="rgb(13.423157%, 12.919617%, 51.931763%)" offset="0.585937"/><stop stop-opacity="1" stop-color="rgb(13.517761%, 13.011169%, 52.2995%)" offset="0.589844"/><stop stop-opacity="1" stop-color="rgb(13.613892%, 13.102722%, 52.668762%)" offset="0.59375"/><stop stop-opacity="1" stop-color="rgb(13.708496%, 13.194275%, 53.036499%)" offset="0.597656"/><stop stop-opacity="1" stop-color="rgb(13.804626%, 13.285828%, 53.405762%)" offset="0.601562"/><stop stop-opacity="1" stop-color="rgb(13.899231%, 13.37738%, 53.773499%)" offset="0.605469"/><stop stop-opacity="1" stop-color="rgb(13.995361%, 13.468933%, 54.142761%)" offset="0.609375"/><stop stop-opacity="1" stop-color="rgb(14.089966%, 13.560486%, 54.510498%)" offset="0.613281"/><stop stop-opacity="1" stop-color="rgb(14.18457%, 13.652039%, 54.879761%)" offset="0.617187"/><stop stop-opacity="1" stop-color="rgb(14.279175%, 13.743591%, 55.247498%)" offset="0.621094"/><stop stop-opacity="1" stop-color="rgb(14.375305%, 13.83667%, 55.61676%)" offset="0.625"/><stop stop-opacity="1" stop-color="rgb(14.46991%, 13.928223%, 55.984497%)" offset="0.628906"/><stop stop-opacity="1" stop-color="rgb(14.56604%, 14.019775%, 56.35376%)" offset="0.632812"/><stop stop-opacity="1" stop-color="rgb(14.660645%, 14.111328%, 56.721497%)" offset="0.636719"/><stop stop-opacity="1" stop-color="rgb(14.756775%, 14.202881%, 57.090759%)" offset="0.640625"/><stop stop-opacity="1" stop-color="rgb(14.851379%, 14.294434%, 57.458496%)" offset="0.644531"/><stop stop-opacity="1" stop-color="rgb(14.94751%, 14.385986%, 57.826233%)" offset="0.648437"/><stop stop-opacity="1" stop-color="rgb(15.042114%, 14.477539%, 58.19397%)" offset="0.652344"/><stop stop-opacity="1" stop-color="rgb(15.138245%, 14.569092%, 58.563232%)" offset="0.65625"/><stop stop-opacity="1" stop-color="rgb(15.232849%, 14.660645%, 58.930969%)" offset="0.660156"/><stop stop-opacity="1" stop-color="rgb(15.327454%, 14.752197%, 59.300232%)" offset="0.664062"/><stop stop-opacity="1" stop-color="rgb(15.422058%, 14.84375%, 59.667969%)" offset="0.667969"/><stop stop-opacity="1" stop-color="rgb(15.518188%, 14.935303%, 60.037231%)" offset="0.671875"/><stop stop-opacity="1" stop-color="rgb(15.612793%, 15.026855%, 60.404968%)" offset="0.675781"/><stop stop-opacity="1" stop-color="rgb(15.708923%, 15.119934%, 60.774231%)" offset="0.679687"/><stop stop-opacity="1" stop-color="rgb(15.803528%, 15.211487%, 61.141968%)" offset="0.683594"/><stop stop-opacity="1" stop-color="rgb(15.899658%, 15.30304%, 61.51123%)" offset="0.6875"/><stop stop-opacity="1" stop-color="rgb(15.994263%, 15.394592%, 61.878967%)" offset="0.691406"/><stop stop-opacity="1" stop-color="rgb(16.090393%, 15.486145%, 62.24823%)" offset="0.695312"/><stop stop-opacity="1" stop-color="rgb(16.184998%, 15.577698%, 62.615967%)" offset="0.699219"/><stop stop-opacity="1" stop-color="rgb(16.281128%, 15.66925%, 62.985229%)" offset="0.703125"/><stop stop-opacity="1" stop-color="rgb(16.375732%, 15.760803%, 63.352966%)" offset="0.707031"/><stop stop-opacity="1" stop-color="rgb(16.470337%, 15.852356%, 63.722229%)" offset="0.710938"/><stop stop-opacity="1" stop-color="rgb(16.564941%, 15.943909%, 64.089966%)" offset="0.714844"/><stop stop-opacity="1" stop-color="rgb(16.661072%, 16.035461%, 64.459229%)" offset="0.71875"/><stop stop-opacity="1" stop-color="rgb(16.755676%, 16.127014%, 64.826965%)" offset="0.722656"/><stop stop-opacity="1" stop-color="rgb(16.851807%, 16.218567%, 65.196228%)" offset="0.726562"/><stop stop-opacity="1" stop-color="rgb(16.946411%, 16.31012%, 65.563965%)" offset="0.730469"/><stop stop-opacity="1" stop-color="rgb(17.042542%, 16.403198%, 65.933228%)" offset="0.734375"/><stop stop-opacity="1" stop-color="rgb(17.137146%, 16.494751%, 66.300964%)" offset="0.738281"/><stop stop-opacity="1" stop-color="rgb(17.233276%, 16.586304%, 66.668701%)" offset="0.742187"/><stop stop-opacity="1" stop-color="rgb(17.327881%, 16.677856%, 67.036438%)" offset="0.746094"/><stop stop-opacity="1" stop-color="rgb(17.424011%, 16.769409%, 67.405701%)" offset="0.75"/><stop stop-opacity="1" stop-color="rgb(17.518616%, 16.860962%, 67.773438%)" offset="0.753906"/><stop stop-opacity="1" stop-color="rgb(17.61322%, 16.952515%, 68.1427%)" offset="0.757812"/><stop stop-opacity="1" stop-color="rgb(17.707825%, 17.044067%, 68.510437%)" offset="0.761719"/><stop stop-opacity="1" stop-color="rgb(17.803955%, 17.13562%, 68.8797%)" offset="0.765625"/><stop stop-opacity="1" stop-color="rgb(17.89856%, 17.227173%, 69.247437%)" offset="0.769531"/><stop stop-opacity="1" stop-color="rgb(17.99469%, 17.318726%, 69.616699%)" offset="0.773437"/><stop stop-opacity="1" stop-color="rgb(18.089294%, 17.410278%, 69.984436%)" offset="0.777344"/><stop stop-opacity="1" stop-color="rgb(18.185425%, 17.501831%, 70.353699%)" offset="0.78125"/><stop stop-opacity="1" stop-color="rgb(18.280029%, 17.593384%, 70.721436%)" offset="0.785156"/><stop stop-opacity="1" stop-color="rgb(18.37616%, 17.686462%, 71.090698%)" offset="0.789062"/><stop stop-opacity="1" stop-color="rgb(18.470764%, 17.778015%, 71.458435%)" offset="0.792969"/><stop stop-opacity="1" stop-color="rgb(18.565369%, 17.869568%, 71.827698%)" offset="0.796875"/><stop stop-opacity="1" stop-color="rgb(18.659973%, 17.961121%, 72.195435%)" offset="0.800781"/><stop stop-opacity="1" stop-color="rgb(18.756104%, 18.052673%, 72.564697%)" offset="0.804687"/><stop stop-opacity="1" stop-color="rgb(18.850708%, 18.144226%, 72.932434%)" offset="0.808594"/><stop stop-opacity="1" stop-color="rgb(18.946838%, 18.235779%, 73.301697%)" offset="0.8125"/><stop stop-opacity="1" stop-color="rgb(19.041443%, 18.327332%, 73.669434%)" offset="0.816406"/><stop stop-opacity="1" stop-color="rgb(19.137573%, 18.418884%, 74.038696%)" offset="0.820312"/><stop stop-opacity="1" stop-color="rgb(19.232178%, 18.510437%, 74.406433%)" offset="0.824219"/><stop stop-opacity="1" stop-color="rgb(19.328308%, 18.60199%, 74.77417%)" offset="0.828125"/><stop stop-opacity="1" stop-color="rgb(19.422913%, 18.693542%, 75.141907%)" offset="0.832031"/><stop stop-opacity="1" stop-color="rgb(19.519043%, 18.785095%, 75.511169%)" offset="0.835937"/><stop stop-opacity="1" stop-color="rgb(19.613647%, 18.876648%, 75.878906%)" offset="0.839844"/><stop stop-opacity="1" stop-color="rgb(19.708252%, 18.969727%, 76.248169%)" offset="0.84375"/><stop stop-opacity="1" stop-color="rgb(19.802856%, 19.061279%, 76.615906%)" offset="0.847656"/><stop stop-opacity="1" stop-color="rgb(19.898987%, 19.152832%, 76.985168%)" offset="0.851562"/><stop stop-opacity="1" stop-color="rgb(19.993591%, 19.244385%, 77.352905%)" offset="0.855469"/><stop stop-opacity="1" stop-color="rgb(20.089722%, 19.335938%, 77.722168%)" offset="0.859375"/><stop stop-opacity="1" stop-color="rgb(20.184326%, 19.42749%, 78.089905%)" offset="0.863281"/><stop stop-opacity="1" stop-color="rgb(20.280457%, 19.519043%, 78.459167%)" offset="0.867187"/><stop stop-opacity="1" stop-color="rgb(20.375061%, 19.610596%, 78.826904%)" offset="0.871094"/><stop stop-opacity="1" stop-color="rgb(20.471191%, 19.702148%, 79.196167%)" offset="0.875"/><stop stop-opacity="1" stop-color="rgb(20.565796%, 19.793701%, 79.563904%)" offset="0.878906"/><stop stop-opacity="1" stop-color="rgb(20.661926%, 19.885254%, 79.933167%)" offset="0.882812"/><stop stop-opacity="1" stop-color="rgb(20.71991%, 19.941711%, 80.160522%)" offset="0.886719"/><stop stop-opacity="1" stop-color="rgb(20.779419%, 19.999695%, 80.389404%)" offset="0.890625"/><stop stop-opacity="1" stop-color="rgb(20.779419%, 19.999695%, 80.389404%)" offset="0.90625"/><stop stop-opacity="1" stop-color="rgb(20.779419%, 19.999695%, 80.389404%)" offset="0.9375"/><stop stop-opacity="1" stop-color="rgb(20.779419%, 19.999695%, 80.389404%)" offset="1"/></linearGradient><clipPath id="121fba7bb1"><rect x="0" width="375" y="0" height="375"/></clipPath><clipPath id="306a9a27cf"><rect x="0" width="375" y="0" height="375"/></clipPath><clipPath id="43a33e4809"><rect x="0" width="375" y="0" height="375"/></clipPath><mask id="a5748665f8"><g filter="url(#d5abe1e3d9)"><g transform="matrix(1, 0, 0, 1, 0, 0)"><g clip-path="url(#43a33e4809)"><g transform="matrix(1, 0, 0, 1, 0, 0)"><g clip-path="url(#306a9a27cf)"><g fill="#000000" fill-opacity="1"><g transform="translate(13.680198, 211.221432)"><g><path d="M 11.890625 0 L 1.8125 0 L 1.8125 -10.390625 L 11.9375 -10.390625 C 14.226562 -10.390625 16.234375 -10.867188 17.953125 -11.828125 C 19.679688 -12.796875 21.019531 -14.171875 21.96875 -15.953125 C 22.914062 -17.742188 23.390625 -19.851562 23.390625 -22.28125 L 23.390625 -63.390625 L 34.90625 -63.390625 L 34.90625 -21.625 C 34.90625 -18.175781 34.328125 -15.113281 33.171875 -12.4375 C 32.023438 -9.769531 30.421875 -7.507812 28.359375 -5.65625 C 26.296875 -3.8125 23.863281 -2.40625 21.0625 -1.4375 C 18.269531 -0.476562 15.210938 0 11.890625 0 Z M 11.890625 0 "/></g></g></g><g fill="#000000" fill-opacity="1"><g transform="translate(49.433675, 211.221432)"><g><path d="M 28.390625 1.4375 C 24.753906 1.4375 21.394531 0.785156 18.3125 -0.515625 C 15.238281 -1.816406 12.570312 -3.632812 10.3125 -5.96875 C 8.0625 -8.300781 6.316406 -11.003906 5.078125 -14.078125 C 3.835938 -17.148438 3.21875 -20.441406 3.21875 -23.953125 C 3.21875 -27.460938 3.835938 -30.75 5.078125 -33.8125 C 6.316406 -36.875 8.0625 -39.566406 10.3125 -41.890625 C 12.570312 -44.222656 15.238281 -46.050781 18.3125 -47.375 C 21.394531 -48.695312 24.769531 -49.359375 28.4375 -49.359375 C 32.132812 -49.359375 35.519531 -48.695312 38.59375 -47.375 C 41.664062 -46.050781 44.335938 -44.222656 46.609375 -41.890625 C 48.878906 -39.566406 50.632812 -36.875 51.875 -33.8125 C 53.113281 -30.75 53.734375 -27.460938 53.734375 -23.953125 C 53.734375 -20.410156 53.113281 -17.109375 51.875 -14.046875 C 50.632812 -10.992188 48.878906 -8.300781 46.609375 -5.96875 C 44.335938 -3.632812 41.65625 -1.816406 38.5625 -0.515625 C 35.476562 0.785156 32.085938 1.4375 28.390625 1.4375 Z M 28.484375 -9.046875 C 31.179688 -9.046875 33.585938 -9.6875 35.703125 -10.96875 C 37.816406 -12.257812 39.484375 -14.023438 40.703125 -16.265625 C 41.929688 -18.503906 42.546875 -21.066406 42.546875 -23.953125 C 42.546875 -26.847656 41.929688 -29.421875 40.703125 -31.671875 C 39.484375 -33.921875 37.816406 -35.691406 35.703125 -36.984375 C 33.585938 -38.273438 31.179688 -38.921875 28.484375 -38.921875 C 25.804688 -38.921875 23.398438 -38.273438 21.265625 -36.984375 C 19.140625 -35.691406 17.460938 -33.921875 16.234375 -31.671875 C 15.015625 -29.421875 14.40625 -26.847656 14.40625 -23.953125 C 14.40625 -21.066406 15.015625 -18.503906 16.234375 -16.265625 C 17.460938 -14.023438 19.140625 -12.257812 21.265625 -10.96875 C 23.398438 -9.6875 25.804688 -9.046875 28.484375 -9.046875 Z M 28.484375 -9.046875 "/></g></g></g><g fill="#000000" fill-opacity="1"><g transform="translate(100.845565, 211.221432)"><g><path d="M 37.84375 0 L 7.546875 0 L 7.546875 -63.390625 L 35.1875 -63.390625 C 39.039062 -63.390625 42.410156 -62.695312 45.296875 -61.3125 C 48.191406 -59.925781 50.445312 -57.953125 52.0625 -55.390625 C 53.675781 -52.828125 54.484375 -49.773438 54.484375 -46.234375 C 54.484375 -44.367188 54.117188 -42.585938 53.390625 -40.890625 C 52.660156 -39.203125 51.6875 -37.710938 50.46875 -36.421875 C 49.257812 -35.128906 47.925781 -34.175781 46.46875 -33.5625 C 48.613281 -32.875 50.5625 -31.789062 52.3125 -30.3125 C 54.070312 -28.84375 55.476562 -27.085938 56.53125 -25.046875 C 57.59375 -23.015625 58.125 -20.800781 58.125 -18.40625 C 58.125 -15.269531 57.554688 -12.546875 56.421875 -10.234375 C 55.285156 -7.921875 53.742188 -6.007812 51.796875 -4.5 C 49.859375 -2.988281 47.6875 -1.859375 45.28125 -1.109375 C 42.875 -0.367188 40.394531 0 37.84375 0 Z M 19.25 -53.40625 L 19.25 -36.90625 L 34.625 -36.90625 C 36.175781 -36.90625 37.566406 -37.269531 38.796875 -38 C 40.023438 -38.738281 40.992188 -39.734375 41.703125 -40.984375 C 42.421875 -42.242188 42.78125 -43.648438 42.78125 -45.203125 C 42.78125 -46.765625 42.421875 -48.164062 41.703125 -49.40625 C 40.992188 -50.644531 40.03125 -51.617188 38.8125 -52.328125 C 37.601562 -53.046875 36.222656 -53.40625 34.671875 -53.40625 Z M 19.25 -28.203125 L 19.25 -10.015625 L 36.8125 -10.015625 C 38.625 -10.015625 40.234375 -10.410156 41.640625 -11.203125 C 43.054688 -11.992188 44.175781 -13.085938 45 -14.484375 C 45.820312 -15.890625 46.234375 -17.492188 46.234375 -19.296875 C 46.234375 -20.941406 45.828125 -22.429688 45.015625 -23.765625 C 44.210938 -25.109375 43.101562 -26.179688 41.6875 -26.984375 C 40.269531 -27.796875 38.675781 -28.203125 36.90625 -28.203125 Z M 19.25 -28.203125 "/></g></g></g><g fill="#000000" fill-opacity="1"><g transform="translate(156.405071, 211.221432)"><g><path d="M 28.390625 1.4375 C 24.753906 1.4375 21.394531 0.785156 18.3125 -0.515625 C 15.238281 -1.816406 12.570312 -3.632812 10.3125 -5.96875 C 8.0625 -8.300781 6.316406 -11.003906 5.078125 -14.078125 C 3.835938 -17.148438 3.21875 -20.441406 3.21875 -23.953125 C 3.21875 -27.460938 3.835938 -30.75 5.078125 -33.8125 C 6.316406 -36.875 8.0625 -39.566406 10.3125 -41.890625 C 12.570312 -44.222656 15.238281 -46.050781 18.3125 -47.375 C 21.394531 -48.695312 24.769531 -49.359375 28.4375 -49.359375 C 32.132812 -49.359375 35.519531 -48.695312 38.59375 -47.375 C 41.664062 -46.050781 44.335938 -44.222656 46.609375 -41.890625 C 48.878906 -39.566406 50.632812 -36.875 51.875 -33.8125 C 53.113281 -30.75 53.734375 -27.460938 53.734375 -23.953125 C 53.734375 -20.410156 53.113281 -17.109375 51.875 -14.046875 C 50.632812 -10.992188 48.878906 -8.300781 46.609375 -5.96875 C 44.335938 -3.632812 41.65625 -1.816406 38.5625 -0.515625 C 35.476562 0.785156 32.085938 1.4375 28.390625 1.4375 Z M 28.484375 -9.046875 C 31.179688 -9.046875 33.585938 -9.6875 35.703125 -10.96875 C 37.816406 -12.257812 39.484375 -14.023438 40.703125 -16.265625 C 41.929688 -18.503906 42.546875 -21.066406 42.546875 -23.953125 C 42.546875 -26.847656 41.929688 -29.421875 40.703125 -31.671875 C 39.484375 -33.921875 37.816406 -35.691406 35.703125 -36.984375 C 33.585938 -38.273438 31.179688 -38.921875 28.484375 -38.921875 C 25.804688 -38.921875 23.398438 -38.273438 21.265625 -36.984375 C 19.140625 -35.691406 17.460938 -33.921875 16.234375 -31.671875 C 15.015625 -29.421875 14.40625 -26.847656 14.40625 -23.953125 C 14.40625 -21.066406 15.015625 -18.503906 16.234375 -16.265625 C 17.460938 -14.023438 19.140625 -12.257812 21.265625 -10.96875 C 23.398438 -9.6875 25.804688 -9.046875 28.484375 -9.046875 Z M 28.484375 -9.046875 "/></g></g></g><g fill="#000000" fill-opacity="1"><g transform="translate(207.816961, 211.221432)"><g><path d="M 28.390625 1.4375 C 24.753906 1.4375 21.394531 0.785156 18.3125 -0.515625 C 15.238281 -1.816406 12.570312 -3.632812 10.3125 -5.96875 C 8.0625 -8.300781 6.316406 -11.003906 5.078125 -14.078125 C 3.835938 -17.148438 3.21875 -20.441406 3.21875 -23.953125 C 3.21875 -27.460938 3.835938 -30.75 5.078125 -33.8125 C 6.316406 -36.875 8.0625 -39.566406 10.3125 -41.890625 C 12.570312 -44.222656 15.238281 -46.050781 18.3125 -47.375 C 21.394531 -48.695312 24.769531 -49.359375 28.4375 -49.359375 C 32.132812 -49.359375 35.519531 -48.695312 38.59375 -47.375 C 41.664062 -46.050781 44.335938 -44.222656 46.609375 -41.890625 C 48.878906 -39.566406 50.632812 -36.875 51.875 -33.8125 C 53.113281 -30.75 53.734375 -27.460938 53.734375 -23.953125 C 53.734375 -20.410156 53.113281 -17.109375 51.875 -14.046875 C 50.632812 -10.992188 48.878906 -8.300781 46.609375 -5.96875 C 44.335938 -3.632812 41.65625 -1.816406 38.5625 -0.515625 C 35.476562 0.785156 32.085938 1.4375 28.390625 1.4375 Z M 28.484375 -9.046875 C 31.179688 -9.046875 33.585938 -9.6875 35.703125 -10.96875 C 37.816406 -12.257812 39.484375 -14.023438 40.703125 -16.265625 C 41.929688 -18.503906 42.546875 -21.066406 42.546875 -23.953125 C 42.546875 -26.847656 41.929688 -29.421875 40.703125 -31.671875 C 39.484375 -33.921875 37.816406 -35.691406 35.703125 -36.984375 C 33.585938 -38.273438 31.179688 -38.921875 28.484375 -38.921875 C 25.804688 -38.921875 23.398438 -38.273438 21.265625 -36.984375 C 19.140625 -35.691406 17.460938 -33.921875 16.234375 -31.671875 C 15.015625 -29.421875 14.40625 -26.847656 14.40625 -23.953125 C 14.40625 -21.066406 15.015625 -18.503906 16.234375 -16.265625 C 17.460938 -14.023438 19.140625 -12.257812 21.265625 -10.96875 C 23.398438 -9.6875 25.804688 -9.046875 28.484375 -9.046875 Z M 28.484375 -9.046875 "/></g></g></g><g fill="#000000" fill-opacity="1"><g transform="translate(259.22884, 211.221432)"><g><path d="M 23.859375 1.4375 C 20.347656 1.4375 17.296875 0.96875 14.703125 0.03125 C 12.109375 -0.894531 9.960938 -2.148438 8.265625 -3.734375 C 6.578125 -5.316406 5.320312 -7.101562 4.5 -9.09375 C 3.675781 -11.082031 3.265625 -13.128906 3.265625 -15.234375 L 14.078125 -15.1875 C 14.171875 -13.019531 15.039062 -11.195312 16.6875 -9.71875 C 18.332031 -8.238281 20.753906 -7.5 23.953125 -7.5 C 26.878906 -7.5 29.03125 -8.054688 30.40625 -9.171875 C 31.789062 -10.296875 32.484375 -11.757812 32.484375 -13.5625 C 32.484375 -14.925781 32.09375 -15.992188 31.3125 -16.765625 C 30.539062 -17.546875 29.398438 -18.160156 27.890625 -18.609375 C 26.390625 -19.066406 24.550781 -19.453125 22.375 -19.765625 C 20.070312 -20.078125 17.882812 -20.554688 15.8125 -21.203125 C 13.75 -21.859375 11.925781 -22.757812 10.34375 -23.90625 C 8.757812 -25.0625 7.507812 -26.507812 6.59375 -28.25 C 5.675781 -29.988281 5.21875 -32.097656 5.21875 -34.578125 C 5.21875 -37.535156 5.910156 -40.113281 7.296875 -42.3125 C 8.679688 -44.519531 10.71875 -46.242188 13.40625 -47.484375 C 16.09375 -48.734375 19.375 -49.359375 23.25 -49.359375 C 27.101562 -49.359375 30.484375 -48.710938 33.390625 -47.421875 C 36.296875 -46.128906 38.554688 -44.328125 40.171875 -42.015625 C 41.785156 -39.703125 42.59375 -37.023438 42.59375 -33.984375 L 31.546875 -34.078125 C 31.421875 -35.847656 30.664062 -37.296875 29.28125 -38.421875 C 27.90625 -39.554688 25.910156 -40.125 23.296875 -40.125 C 20.878906 -40.125 19.109375 -39.601562 17.984375 -38.5625 C 16.867188 -37.519531 16.3125 -36.269531 16.3125 -34.8125 C 16.3125 -33.632812 16.570312 -32.679688 17.09375 -31.953125 C 17.625 -31.222656 18.613281 -30.613281 20.0625 -30.125 C 21.507812 -29.644531 23.597656 -29.1875 26.328125 -28.75 C 28.816406 -28.382812 31.132812 -27.890625 33.28125 -27.265625 C 35.425781 -26.640625 37.296875 -25.789062 38.890625 -24.71875 C 40.492188 -23.65625 41.742188 -22.273438 42.640625 -20.578125 C 43.546875 -18.878906 44 -16.757812 44 -14.21875 C 44 -10.707031 43.117188 -7.789062 41.359375 -5.46875 C 39.609375 -3.15625 37.21875 -1.425781 34.1875 -0.28125 C 31.15625 0.863281 27.710938 1.4375 23.859375 1.4375 Z M 23.859375 1.4375 "/></g></g></g><g fill="#000000" fill-opacity="1"><g transform="translate(300.388209, 211.221432)"><g><path d="M 36.078125 0 L 26.328125 0 C 24.898438 0 23.429688 -0.128906 21.921875 -0.390625 C 20.421875 -0.660156 18.984375 -1.148438 17.609375 -1.859375 C 16.242188 -2.578125 15.023438 -3.609375 13.953125 -4.953125 C 12.878906 -6.304688 12.023438 -8.0625 11.390625 -10.21875 C 10.753906 -12.382812 10.4375 -15.050781 10.4375 -18.21875 L 10.4375 -38.21875 L 0.515625 -38.21875 L 0.515625 -47.90625 L 10.4375 -47.90625 L 10.4375 -61.9375 L 21.71875 -62.03125 L 21.71875 -47.90625 L 36.078125 -47.90625 L 36.078125 -38.21875 L 21.71875 -38.21875 L 21.71875 -17.71875 C 21.71875 -15.476562 22.039062 -13.75 22.6875 -12.53125 C 23.34375 -11.320312 24.207031 -10.492188 25.28125 -10.046875 C 26.351562 -9.597656 27.476562 -9.375 28.65625 -9.375 L 36.078125 -9.375 Z M 36.078125 0 "/></g></g></g></g></g></g></g></g></mask><clipPath id="7e058c62dc"><path d="M 0 0 L 375 0 L 375 375 L 0 375 Z M 0 0 " clip-rule="nonzero"/></clipPath><clipPath id="9d7f6dde89"><rect x="0" width="375" y="0" height="375"/></clipPath><clipPath id="24fe3cf11c"><rect x="0" width="375" y="0" height="375"/></clipPath><clipPath id="e6513cf09e"><rect x="0" width="375" y="0" height="375"/></clipPath></defs><g transform="matrix(1, 0, 0, 1, 0, 0)"><g clip-path="url(#e6513cf09e)"><g fill="#000000" fill-opacity="1"><g transform="translate(333.444825, 211.221432)"><g><path d="M 12.53125 1.171875 C 11.226562 1.171875 10.085938 0.890625 9.109375 0.328125 C 8.128906 -0.234375 7.359375 -0.988281 6.796875 -1.9375 C 6.242188 -2.882812 5.96875 -3.914062 5.96875 -5.03125 C 5.96875 -6.15625 6.238281 -7.1875 6.78125 -8.125 C 7.320312 -9.070312 8.085938 -9.828125 9.078125 -10.390625 C 10.078125 -10.953125 11.242188 -11.234375 12.578125 -11.234375 C 13.921875 -11.234375 15.082031 -10.953125 16.0625 -10.390625 C 17.039062 -9.828125 17.804688 -9.070312 18.359375 -8.125 C 18.921875 -7.1875 19.203125 -6.15625 19.203125 -5.03125 C 19.203125 -3.320312 18.59375 -1.859375 17.375 -0.640625 C 16.164062 0.566406 14.550781 1.171875 12.53125 1.171875 Z M 12.53125 1.171875 "/></g></g></g><g transform="matrix(1, 0, 0, 1, 0, 0)"><g clip-path="url(#24fe3cf11c)"><g mask="url(#a5748665f8)"><g transform="matrix(1, 0, 0, 1, 0, 0)"><g clip-path="url(#9d7f6dde89)"><g clip-path="url(#7e058c62dc)"><rect x="-201.3" fill="url(#33a6f63415)" width="777.6" height="777.599981" y="-201.299995"/></g></g></g></g></g></g></g></g></svg>